<svg width="65" height="65" viewBox="0 0 65 65" fill="none" xmlns="http://www.w3.org/2000/svg">
<path fill-rule="evenodd" clip-rule="evenodd" d="M0 10C0 4.47715 4.47715 0 10 0H55C60.5228 0 65 4.47715 65 10V55C65 60.5228 60.5228 65 55 65H10C4.47715 65 0 60.5228 0 55V10ZM11.8787 11.8787C13.0503 10.7071 14.9497 10.7071 16.1213 11.8787L32.5 28.2574L48.8787 11.8787C50.0503 10.7071 51.9497 10.7071 53.1213 11.8787C54.2929 13.0503 54.2929 14.9497 53.1213 16.1213L36.7426 32.5L53.1213 48.8787C54.2929 50.0503 54.2929 51.9497 53.1213 53.1213C51.9497 54.2929 50.0503 54.2929 48.8787 53.1213L32.5 36.7426L16.1213 53.1213C14.9497 54.2929 13.0503 54.2929 11.8787 53.1213C10.7071 51.9497 10.7071 50.0503 11.8787 48.8787L28.2574 32.5L11.8787 16.1213C10.7071 14.9497 10.7071 13.0503 11.8787 11.8787Z" fill="#D73636"/>
</svg>
