<svg width="665" height="665" viewBox="0 0 665 665" fill="none" xmlns="http://www.w3.org/2000/svg">
<g clip-path="url(#clip0_113_6)">
<path fill-rule="evenodd" clip-rule="evenodd" d="M348.597 52.2934C341.443 39.9022 323.557 39.9022 316.403 52.2934L2.5179 595.959C-4.63618 608.35 4.3064 623.839 18.6146 623.839H646.385C660.694 623.839 669.636 608.35 662.482 595.959L348.597 52.2934ZM363.76 437.97L370.238 237.88H299.41L305.888 437.97H363.76ZM308.845 519.639C316.073 526.774 324.709 530.341 334.754 530.341C341.325 530.341 347.333 528.698 352.777 525.413C358.316 522.127 362.775 517.715 366.154 512.176C369.627 506.638 371.364 500.489 371.364 493.73C371.364 483.78 367.656 475.284 360.24 468.244C352.918 461.11 344.423 457.542 334.754 457.542C324.709 457.542 316.073 461.11 308.845 468.244C301.71 475.284 298.143 483.78 298.143 493.73C298.143 503.869 301.71 512.505 308.845 519.639Z" fill="#FFC700"/>
</g>
<defs>
<clipPath id="clip0_113_6">
<rect width="665" height="665" fill="white"/>
</clipPath>
</defs>
</svg>
