<svg width="65" height="65" viewBox="0 0 65 65" fill="none" xmlns="http://www.w3.org/2000/svg">
<path fill-rule="evenodd" clip-rule="evenodd" d="M10 0C4.47715 0 0 4.47715 0 10V55C0 60.5228 4.47715 65 10 65H55C60.5228 65 65 60.5228 65 55V10C65 4.47715 60.5228 0 55 0H10ZM19 11C14.5817 11 11 14.5817 11 19V46C11 50.4183 14.5817 54 19 54H46C50.4183 54 54 50.4183 54 46V19C54 14.5817 50.4183 11 46 11H19ZM17 19C17 17.8954 17.8954 17 19 17H46C47.1046 17 48 17.8954 48 19V46C48 47.1046 47.1046 48 46 48H19C17.8954 48 17 47.1046 17 46V19Z" fill="white"/>
</svg>
