<svg width="900" height="900" viewBox="0 0 900 900" fill="none" xmlns="http://www.w3.org/2000/svg">
<path d="M368 57H423C478.228 57 523 101.772 523 157V240H368V57Z" fill="white"/>
<path d="M213 157C213 101.772 257.772 57 313 57H368V240H213V157Z" fill="white"/>
<path d="M213 240H523V472C523 527.228 478.228 572 423 572H313C257.772 572 213 527.228 213 472V240Z" fill="white"/>
<rect x="210" y="57" width="317" height="518.727" rx="100" stroke="black" stroke-width="20"/>
<path d="M213.458 238.353L203.458 238.353L203.458 258.353L213.458 258.353L213.458 238.353ZM213.458 258.353L524.695 258.353L524.695 238.353L213.458 238.353L213.458 258.353Z" fill="black"/>
<path d="M368 240.452L369.06 71" stroke="black" stroke-width="20" stroke-linecap="square"/>
<rect x="341" y="94" width="55" height="99" rx="10" fill="white" stroke="black" stroke-width="20"/>
<path d="M431.891 385.686C429.116 383.799 425.391 385.962 425.655 389.308L458.325 803.972C459.283 816.131 474.25 821.335 482.545 812.394L566.953 721.41L631.798 832.664C634.819 837.847 641.436 839.653 646.671 836.725L711.468 800.483C715.364 798.304 716.723 793.358 714.487 789.494L647.576 673.862L772.494 645.797C784.448 643.112 787.429 627.451 777.297 620.561L431.891 385.686Z" fill="white" stroke="black" stroke-width="20" stroke-linejoin="round"/>
</svg>
